<mxfile host="app.diagrams.net" modified="2021-08-19T02:35:49.536Z" agent="5.0 (Windows NT 10.0; Win64; x64) AppleWebKit/537.36 (KHTML, like Gecko) Chrome/92.0.4515.131 Safari/537.36" etag="Fmp3uFipvxSeC-sKBrA-" version="14.9.8" type="github">
  <diagram name="Page-1" id="efa7a0a1-bf9b-a30e-e6df-94a7791c09e9">
    <mxGraphModel dx="2360" dy="1032" grid="1" gridSize="10" guides="1" tooltips="1" connect="1" arrows="1" fold="1" page="1" pageScale="1" pageWidth="826" pageHeight="1169" background="none" math="0" shadow="0">
      <root>
        <mxCell id="0" />
        <mxCell id="1" parent="0" />
        <mxCell id="JTjGpdpegTOCwPPOVgoM-136" value="EDITORIAL" style="swimlane;childLayout=stackLayout;horizontal=1;startSize=30;horizontalStack=0;rounded=1;fontSize=14;fontStyle=0;strokeWidth=2;resizeParent=0;resizeLast=1;shadow=0;dashed=0;align=center;" vertex="1" parent="1">
          <mxGeometry x="-60" y="80" width="160" height="120" as="geometry">
            <mxRectangle x="333" y="190" width="70" height="30" as="alternateBounds" />
          </mxGeometry>
        </mxCell>
        <mxCell id="JTjGpdpegTOCwPPOVgoM-137" value="*edi_nombre&#xa;edi_telefono&#xa;edi_ciudad&#xa;edi_pais" style="align=left;strokeColor=none;fillColor=none;spacingLeft=4;fontSize=12;verticalAlign=top;resizable=0;rotatable=0;part=1;" vertex="1" parent="JTjGpdpegTOCwPPOVgoM-136">
          <mxGeometry y="30" width="160" height="90" as="geometry" />
        </mxCell>
        <mxCell id="JTjGpdpegTOCwPPOVgoM-139" value="Publicar" style="shape=rhombus;perimeter=rhombusPerimeter;whiteSpace=wrap;html=1;align=center;" vertex="1" parent="1">
          <mxGeometry x="200" y="120" width="120" height="60" as="geometry" />
        </mxCell>
        <mxCell id="JTjGpdpegTOCwPPOVgoM-140" value="LIBRO" style="swimlane;childLayout=stackLayout;horizontal=1;startSize=30;horizontalStack=0;rounded=1;fontSize=14;fontStyle=0;strokeWidth=2;resizeParent=0;resizeLast=1;shadow=0;dashed=0;align=center;" vertex="1" parent="1">
          <mxGeometry x="430" y="70" width="160" height="120" as="geometry">
            <mxRectangle x="333" y="190" width="70" height="30" as="alternateBounds" />
          </mxGeometry>
        </mxCell>
        <mxCell id="JTjGpdpegTOCwPPOVgoM-141" value="*lib_ISBN&#xa;lib_titulo&#xa;lib_numero_paginas&#xa;lib_anno" style="align=left;strokeColor=none;fillColor=none;spacingLeft=4;fontSize=12;verticalAlign=top;resizable=0;rotatable=0;part=1;" vertex="1" parent="JTjGpdpegTOCwPPOVgoM-140">
          <mxGeometry y="30" width="160" height="90" as="geometry" />
        </mxCell>
        <mxCell id="JTjGpdpegTOCwPPOVgoM-143" value="AUTOR" style="swimlane;childLayout=stackLayout;horizontal=1;startSize=30;horizontalStack=0;rounded=1;fontSize=14;fontStyle=0;strokeWidth=2;resizeParent=0;resizeLast=1;shadow=0;dashed=0;align=center;" vertex="1" parent="1">
          <mxGeometry x="850" y="70" width="160" height="120" as="geometry">
            <mxRectangle x="333" y="190" width="70" height="30" as="alternateBounds" />
          </mxGeometry>
        </mxCell>
        <mxCell id="JTjGpdpegTOCwPPOVgoM-144" value="*aut_codigo&#xa;aut_nombre&#xa;aut_apellido&#xa;aut_nacionalidad&#xa;aut_fecha_nto" style="align=left;strokeColor=none;fillColor=none;spacingLeft=4;fontSize=12;verticalAlign=top;resizable=0;rotatable=0;part=1;" vertex="1" parent="JTjGpdpegTOCwPPOVgoM-143">
          <mxGeometry y="30" width="160" height="90" as="geometry" />
        </mxCell>
        <mxCell id="JTjGpdpegTOCwPPOVgoM-145" value="CLIENTE" style="swimlane;childLayout=stackLayout;horizontal=1;startSize=30;horizontalStack=0;rounded=1;fontSize=14;fontStyle=0;strokeWidth=2;resizeParent=0;resizeLast=1;shadow=0;dashed=0;align=center;" vertex="1" parent="1">
          <mxGeometry x="450" y="470" width="160" height="120" as="geometry" />
        </mxCell>
        <mxCell id="JTjGpdpegTOCwPPOVgoM-146" value="*cli_id&#xa;cli_nombre&#xa;cli_ciudad&#xa;cli_pais&#xa;cli_telefono" style="align=left;strokeColor=none;fillColor=none;spacingLeft=4;fontSize=12;verticalAlign=top;resizable=0;rotatable=0;part=1;" vertex="1" parent="JTjGpdpegTOCwPPOVgoM-145">
          <mxGeometry y="30" width="160" height="90" as="geometry" />
        </mxCell>
        <mxCell id="JTjGpdpegTOCwPPOVgoM-147" value="Escribir" style="shape=rhombus;perimeter=rhombusPerimeter;whiteSpace=wrap;html=1;align=center;" vertex="1" parent="1">
          <mxGeometry x="660" y="110" width="120" height="60" as="geometry" />
        </mxCell>
        <mxCell id="JTjGpdpegTOCwPPOVgoM-148" value="Comprar" style="shape=rhombus;perimeter=rhombusPerimeter;whiteSpace=wrap;html=1;align=center;" vertex="1" parent="1">
          <mxGeometry x="450" y="310" width="120" height="60" as="geometry" />
        </mxCell>
        <mxCell id="JTjGpdpegTOCwPPOVgoM-155" value="" style="edgeStyle=entityRelationEdgeStyle;fontSize=12;html=1;endArrow=ERmandOne;entryX=1;entryY=0.444;entryDx=0;entryDy=0;entryPerimeter=0;exitX=0;exitY=0.5;exitDx=0;exitDy=0;" edge="1" parent="1" source="JTjGpdpegTOCwPPOVgoM-139" target="JTjGpdpegTOCwPPOVgoM-137">
          <mxGeometry width="100" height="100" relative="1" as="geometry">
            <mxPoint x="310" y="330" as="sourcePoint" />
            <mxPoint x="410" y="230" as="targetPoint" />
          </mxGeometry>
        </mxCell>
        <mxCell id="JTjGpdpegTOCwPPOVgoM-158" value="" style="edgeStyle=entityRelationEdgeStyle;fontSize=12;html=1;endArrow=ERzeroToMany;endFill=1;entryX=0;entryY=0.5;entryDx=0;entryDy=0;exitX=1;exitY=0.5;exitDx=0;exitDy=0;" edge="1" parent="1" source="JTjGpdpegTOCwPPOVgoM-139" target="JTjGpdpegTOCwPPOVgoM-141">
          <mxGeometry width="100" height="100" relative="1" as="geometry">
            <mxPoint x="260" y="330" as="sourcePoint" />
            <mxPoint x="360" y="230" as="targetPoint" />
          </mxGeometry>
        </mxCell>
        <mxCell id="JTjGpdpegTOCwPPOVgoM-159" value="" style="edgeStyle=entityRelationEdgeStyle;fontSize=12;html=1;endArrow=ERoneToMany;entryX=0.994;entryY=0.378;entryDx=0;entryDy=0;entryPerimeter=0;exitX=0;exitY=0.5;exitDx=0;exitDy=0;" edge="1" parent="1" source="JTjGpdpegTOCwPPOVgoM-147" target="JTjGpdpegTOCwPPOVgoM-141">
          <mxGeometry width="100" height="100" relative="1" as="geometry">
            <mxPoint x="540" y="330" as="sourcePoint" />
            <mxPoint x="640" y="230" as="targetPoint" />
          </mxGeometry>
        </mxCell>
        <mxCell id="JTjGpdpegTOCwPPOVgoM-160" value="" style="edgeStyle=entityRelationEdgeStyle;fontSize=12;html=1;endArrow=ERoneToMany;exitX=1;exitY=0.5;exitDx=0;exitDy=0;entryX=0;entryY=0.5;entryDx=0;entryDy=0;" edge="1" parent="1" source="JTjGpdpegTOCwPPOVgoM-147" target="JTjGpdpegTOCwPPOVgoM-144">
          <mxGeometry width="100" height="100" relative="1" as="geometry">
            <mxPoint x="200" y="320" as="sourcePoint" />
            <mxPoint x="640" y="310" as="targetPoint" />
          </mxGeometry>
        </mxCell>
        <mxCell id="JTjGpdpegTOCwPPOVgoM-165" value="" style="edgeStyle=entityRelationEdgeStyle;fontSize=12;html=1;endArrow=ERoneToMany;entryX=0.5;entryY=1;entryDx=0;entryDy=0;exitX=0.5;exitY=0;exitDx=0;exitDy=0;" edge="1" parent="1" source="JTjGpdpegTOCwPPOVgoM-148" target="JTjGpdpegTOCwPPOVgoM-141">
          <mxGeometry width="100" height="100" relative="1" as="geometry">
            <mxPoint x="50" y="180" as="sourcePoint" />
            <mxPoint x="150" y="80" as="targetPoint" />
          </mxGeometry>
        </mxCell>
        <mxCell id="JTjGpdpegTOCwPPOVgoM-166" value="" style="edgeStyle=entityRelationEdgeStyle;fontSize=12;html=1;endArrow=ERzeroToMany;endFill=1;entryX=0.5;entryY=0;entryDx=0;entryDy=0;exitX=0.5;exitY=1;exitDx=0;exitDy=0;" edge="1" parent="1" source="JTjGpdpegTOCwPPOVgoM-148" target="JTjGpdpegTOCwPPOVgoM-145">
          <mxGeometry width="100" height="100" relative="1" as="geometry">
            <mxPoint x="300" y="260" as="sourcePoint" />
            <mxPoint x="400" y="160" as="targetPoint" />
          </mxGeometry>
        </mxCell>
      </root>
    </mxGraphModel>
  </diagram>
</mxfile>
